<?xml version="1.0" standalone="no"?>
<!DOCTYPE svg PUBLIC "-//W3C//DTD SVG 20010904//EN"
 "http://www.w3.org/TR/2001/REC-SVG-20010904/DTD/svg10.dtd">
<svg version="1.0" xmlns="http://www.w3.org/2000/svg"
 width="368.000000pt" height="368.000000pt" viewBox="0 0 368.000000 368.000000"
 preserveAspectRatio="xMidYMid meet">
<metadata>
Created by potrace 1.11, written by Peter Selinger 2001-2013
</metadata>
<g transform="translate(0.000000,368.000000) scale(0.100000,-0.100000)"
fill="#000000" stroke="none">
<path d="M575 3624 c-119 -19 -127 -21 -212 -57 -107 -45 -207 -112 -290 -192
-44 -43 -54 -57 -28 -37 64 47 193 108 290 138 78 23 109 27 235 28 99 1 163
-4 200 -14 30 -8 57 -15 60 -15 52 -14 179 -70 226 -100 46 -30 122 -54 147
-47 4 1 7 -2 7 -8 0 -5 -9 -10 -20 -10 -11 0 -20 -2 -20 -4 0 -3 31 -37 70
-77 63 -65 75 -73 127 -84 57 -12 57 -17 -1 -30 -26 -5 -27 -8 -13 -23 8 -9
34 -53 58 -97 23 -44 48 -83 53 -87 6 -4 30 -10 54 -14 50 -7 55 -19 10 -22
-52 -4 -58 -15 -38 -76 10 -29 20 -69 23 -88 6 -47 14 -58 40 -58 31 0 67 -11
67 -20 0 -4 -20 -11 -45 -14 -49 -8 -48 -6 -45 -91 2 -27 3 -66 4 -85 0 -19 6
-35 11 -36 43 -4 94 -18 90 -24 -3 -5 -28 -11 -55 -15 -40 -6 -51 -11 -55 -28
-2 -12 -13 -60 -23 -107 l-19 -85 86 -16 c97 -17 97 -18 -73 -47 -35 -7 -41
-13 -75 -77 -76 -145 -154 -240 -268 -326 -136 -103 -283 -138 -391 -93 -49
20 -132 74 -132 85 0 10 14 16 115 53 79 29 134 25 238 -14 40 -16 54 -17 66
-7 90 69 191 163 191 179 0 11 -114 63 -205 93 -200 68 -390 31 -615 -119 -41
-27 -77 -52 -80 -55 -4 -5 -87 -72 -109 -88 -6 -4 81 -103 147 -168 62 -61
193 -153 257 -180 22 -10 47 -21 56 -25 38 -19 142 -26 240 -17 259 26 533
247 686 554 38 76 90 210 98 253 0 3 5 23 10 45 4 22 10 47 11 55 17 81 22
242 10 345 -28 249 -108 464 -241 650 -70 98 -100 129 -192 206 -204 169 -464
237 -738 193z"/>
<path d="M2776 3624 c-276 -54 -499 -219 -663 -490 -59 -97 -140 -306 -158
-409 -20 -110 -29 -202 -29 -300 0 -70 4 -111 20 -215 3 -20 29 -115 48 -175
16 -51 70 -169 105 -230 75 -130 198 -266 318 -352 108 -77 276 -135 398 -136
194 -3 409 121 596 344 l39 47 -74 61 c-102 83 -238 166 -331 200 -123 46
-267 50 -390 11 -82 -26 -215 -87 -215 -99 0 -14 117 -127 165 -159 6 -4 17
-13 26 -20 13 -10 24 -9 55 4 67 29 149 42 200 33 48 -9 164 -57 164 -68 0
-10 -92 -69 -135 -87 -109 -45 -280 1 -414 111 -96 80 -183 190 -242 307 -22
43 -43 77 -47 76 -10 -3 -137 21 -162 30 -16 6 -1 11 57 21 43 7 81 18 84 23
4 6 1 25 -6 42 -11 27 -21 74 -29 138 -3 24 -5 25 -54 33 -24 3 -53 10 -65 14
-17 7 -12 9 28 15 85 12 80 5 83 115 l3 99 -43 6 c-70 11 -76 22 -16 31 29 5
56 8 59 7 4 -1 10 20 14 45 4 26 15 73 25 104 l17 58 -38 6 c-41 7 -64 25 -32
25 50 0 91 21 104 53 7 17 30 61 52 96 21 35 36 65 34 67 -2 2 -21 10 -43 17
l-39 14 60 8 c57 7 62 9 132 82 40 41 73 77 73 79 0 2 -12 4 -27 4 -39 1 -10
15 47 24 24 4 50 12 58 19 25 20 120 69 197 101 115 47 334 68 468 44 92 -17
290 -90 317 -118 7 -8 63 -45 80 -54 8 -5 -19 24 -60 63 -41 39 -78 71 -83 71
-4 0 -17 9 -29 20 -55 51 -233 121 -368 145 -73 13 -266 12 -334 -1z"/>
<path d="M1485 1560 c-16 -20 -63 -63 -102 -95 -49 -40 -73 -66 -73 -80 0 -11
-5 -26 -12 -33 -7 -7 -9 -12 -4 -12 4 0 -8 -14 -26 -30 -37 -35 -115 -73 -241
-120 -48 -18 -86 -36 -85 -41 2 -4 75 -81 163 -171 247 -251 430 -478 609
-754 50 -77 96 -149 102 -159 19 -34 31 -27 79 52 77 124 187 288 196 291 5 2
9 8 9 13 0 8 20 35 48 64 6 8 12 18 12 23 0 6 3 12 8 14 4 2 34 37 67 78 91
114 89 112 205 240 41 46 126 134 189 196 63 62 113 115 110 117 -2 2 -58 25
-124 51 -172 68 -251 124 -242 173 3 17 -10 33 -59 73 -35 29 -85 74 -111 101
l-47 49 -15 -27 c-8 -16 -16 -32 -18 -38 -18 -69 -21 -99 -19 -164 2 -42 5
-83 7 -91 11 -41 72 -131 113 -167 25 -22 46 -44 46 -49 0 -5 -19 -29 -41 -54
-51 -56 -106 -121 -154 -180 -20 -25 -44 -54 -53 -65 -16 -19 -94 -123 -156
-208 l-27 -37 -66 92 c-37 51 -69 95 -72 98 -3 3 -50 59 -103 125 -54 66 -120
144 -146 174 l-49 55 59 57 c98 96 139 228 108 349 -6 25 -14 57 -17 72 -3 15
-12 33 -22 41 -14 13 -19 11 -46 -23z"/>
</g>
</svg>
